PathFileType	4	(X/Y/Z)	/Users/itak/Documents/Research/Walk-IL/dataset/trc/00520_00183.trc
DataRate	CameraRate	NumFrames	NumMarkers	Units	OrigDataRate	OrigDataStartFrame	OrigNumFrames
100.000000	100.000000	4	53	mm	100.000000	177	472
Frame#	Time	RPSI			LPSI			L3			STRN			T10			C7			CLAV			RBAK			LBAK			LSHO			LUPA			LAEL			LAOL			LWTS			LWPS			LFRA			LIFD			LHPS			LHTS			RSHO			RUPA			RAEL			RAOL			RWTS			RWPS			RFRA			RIFD			RHTS			RHPS			RBHD			LFHD			RFHD			LBHD			LHIP			RHIP			RASI			LASI			LKNE			LTHI			LANK			LTIP			LTOE			LMT1			LMT5			LHEE			RKNE			RTHI			RANK			RTIP			RTOE			RMT1			RMT5			RHEE			
		X1	Y1	Z1	X2	Y2	Z2	X3	Y3	Z3	X4	Y4	Z4	X5	Y5	Z5	X6	Y6	Z6	X7	Y7	Z7	X8	Y8	Z8	X9	Y9	Z9	X10	Y10	Z10	X11	Y11	Z11	X12	Y12	Z12	X13	Y13	Z13	X14	Y14	Z14	X15	Y15	Z15	X16	Y16	Z16	X17	Y17	Z17	X18	Y18	Z18	X19	Y19	Z19	X20	Y20	Z20	X21	Y21	Z21	X22	Y22	Z22	X23	Y23	Z23	X24	Y24	Z24	X25	Y25	Z25	X26	Y26	Z26	X27	Y27	Z27	X28	Y28	Z28	X29	Y29	Z29	X30	Y30	Z30	X31	Y31	Z31	X32	Y32	Z32	X33	Y33	Z33	X34	Y34	Z34	X35	Y35	Z35	X36	Y36	Z36	X37	Y37	Z37	X38	Y38	Z38	X39	Y39	Z39	X40	Y40	Z40	X41	Y41	Z41	X42	Y42	Z42	X43	Y43	Z43	X44	Y44	Z44	X45	Y45	Z45	X46	Y46	Z46	X47	Y47	Z47	X48	Y48	Z48	X49	Y49	Z49	X50	Y50	Z50	X51	Y51	Z51	X52	Y52	Z52	X53	Y53	Z53	

178	1.77	-771.9320068359375	951.1740112304688	-334.9285888671875	-748.1444091796875	941.05078125	-455.702880859375	-754.8328857421875	1023.159790039062	-404.7934875488281	-530.81396484375	1173.898193359375	-360.2441711425781	-760.0257568359375	1128.17138671875	-403.6988830566406	-702.8960571289062	1355.184936523438	-389.204345703125	-558.6116943359375	1271.578979492188	-363.2870483398438	-776.511962890625	1237.081298828125	-318.6746826171875	-715.1179809570312	1303.051147460938	-481.2729187011719	-607.0208740234375	1348.686767578125	-533.4261474609375	-614.1705932617188	1225.598999023438	-599.3396606445312	-608.961181640625	1017.222839355469	-634.7571411132812	-689.3114624023438	1008.387939453125	-575.251708984375	-527.5112915039062	828.286865234375	-593.9952392578125	-600.4269409179688	794.9053955078125	-644.1184692382812	-592.32470703125	933.0140991210938	-638.7410888671875	-526.5381469726562	670.64794921875	-593.9917602539062	-576.2748413085938	741.7122802734375	-640.255126953125	-516.5249633789062	751.5441284179688	-615.7734985351562	-681.7377319335938	1345.787841796875	-234.2580261230469	-720.362060546875	1282.362426757812	-188.1815948486328	-787.3548583984375	1024.691162109375	-159.5487060546875	-817.0693969726562	1014.477111816406	-217.8979339599609	-724.7296752929688	806.8544311523438	-141.6040649414062	-816.5057373046875	798.077880859375	-143.0939178466797	-798.7783203125	971.1680297851562	-153.8204193115234	-757.0218505859375	649.7244262695312	-145.6354064941406	-743.457763671875	714.6466064453125	-118.7328720092773	-810.0401611328125	725.3117065429688	-136.6566314697266	-693.303955078125	1495.603271484375	-298.1055908203125	-517.2114868164062	1570.087158203125	-359.1536865234375	-576.1649169921875	1547.91064453125	-248.0825958251953	-631.41064453125	1520.502563476562	-444.7481689453125	-618.88037109375	860.4207763671875	-560.9544677734375	-686.4262084960938	857.4447631835938	-189.6720886230469	-580.3303833007812	905.1050415039062	-239.431884765625	-540.9323120117188	901.3233642578125	-479.0095520019531	-556.47265625	441.0798034667969	-524.5868530273438	-564.7532348632812	601.5287475585938	-538.0269775390625	-920.5623779296875	213.9324493408203	-603.0086669921875	-659.8338012695312	347.0253601074219	-553.4906005859375	-846.9251708984375	41.02656936645508	-524.5029296875	-882.4595947265625	109.0398483276367	-499.8857116699219	-877.1072998046875	113.1239318847656	-603.6173095703125	-951.3507690429688	253.2422027587891	-544.88916015625	-601.4456787109375	475.02685546875	-259.3373718261719	-642.2157592773438	728.304931640625	-192.3819122314453	-672.557373046875	49.85863876342773	-322.8098449707031	-585.8357543945312	328.5938415527344	-284.9114990234375	-467.3578186035156	41.65785980224609	-317.1406555175781	-521.3665161132812	45.16511535644531	-369.6658020019531	-566.6017456054688	45.90897750854492	-282.8059692382812	-712.6929931640625	39.65054321289062	-380.4105224609375	
179	1.78	-764.8779907226562	951.6049194335938	-333.2569580078125	-740.580322265625	941.3470458984375	-453.9590454101562	-747.8241577148438	1023.764526367188	-402.6395874023438	-523.80078125	1174.873779296875	-357.1658325195312	-752.5153198242188	1128.889770507812	-400.220458984375	-695.884521484375	1355.922241210938	-386.0697937011719	-551.6458740234375	1272.466430664062	-360.1926574707031	-769.1669311523438	1237.6142578125	-315.3087158203125	-708.0425415039062	1303.792846679688	-478.1990661621094	-600.0509643554688	1349.53564453125	-530.3298950195312	-606.944091796875	1226.401123046875	-596.1968994140625	-600.6988525390625	1017.936340332031	-631.3718872070312	-681.2356567382812	1008.789916992188	-572.1670532226562	-517.3575439453125	830.417236328125	-589.8715209960938	-589.51318359375	795.9922485351562	-640.1753540039062	-583.2615356445312	934.1347045898438	-635.0335693359375	-513.9418334960938	672.8806762695312	-589.7389526367188	-564.673095703125	743.1063232421875	-636.1522827148438	-505.0309753417969	753.9617309570312	-611.4890747070312	-674.6162719726562	1346.590576171875	-231.1390228271484	-712.979736328125	1283.085571289062	-184.7940521240234	-778.4094848632812	1025.070434570312	-155.1174163818359	-808.6907958984375	1014.665405273438	-213.1700744628906	-714.287109375	807.6795654296875	-137.3444366455078	-806.0764770507812	798.6273803710938	-137.5675201416016	-789.485107421875	971.5310668945312	-149.1441802978516	-746.34033203125	650.4778442382812	-139.8818817138672	-732.5285034179688	715.6233520507812	-113.5655975341797	-799.5006103515625	726.0350341796875	-130.4314117431641	-686.404296875	1496.30126953125	-295.1233520507812	-510.2505798339844	1571.045776367188	-355.6816101074219	-569.4772338867188	1548.765625	-244.8083190917969	-624.0985107421875	1521.300048828125	-441.6546936035156	-609.7969360351562	861.37744140625	-557.9491577148438	-680.5956420898438	857.7001342773438	-187.4923706054688	-573.9297485351562	905.8992309570312	-235.9389190673828	-533.0249633789062	902.9312744140625	-475.2964477539062	-536.4530029296875	443.6717529296875	-518.30078125	-550.4216918945312	603.5091552734375	-533.3583984375	-899.2103271484375	217.1183929443359	-599.9697875976562	-638.9672241210938	349.88427734375	-547.6998291015625	-824.99658203125	43.45551300048828	-522.4050903320312	-861.095703125	111.6602249145508	-497.4259643554688	-854.8607177734375	116.9985122680664	-600.90087890625	-931.210205078125	255.6770935058594	-541.8322143554688	-599.1435546875	474.467529296875	-257.3472595214844	-637.2010498046875	728.2644653320312	-190.1530609130859	-672.5992431640625	49.8004150390625	-322.7549133300781	-584.752685546875	328.0794982910156	-283.7095336914062	-467.3824768066406	41.59630966186523	-317.0450744628906	-521.3876342773438	45.22430801391602	-369.5442199707031	-566.5984497070312	45.75715637207031	-282.6787719726562	-712.6616821289062	39.74057388305664	-380.4478759765625	
180	1.79	-757.8272705078125	951.9771728515625	-331.6024169921875	-732.9750366210938	941.7323608398438	-452.2388305664062	-740.787109375	1024.379638671875	-400.5180358886719	-516.8466186523438	1175.873901367188	-354.0949401855469	-745.1074829101562	1129.603271484375	-396.9955749511719	-688.9495849609375	1356.636962890625	-383.0377197265625	-544.7665405273438	1273.381225585938	-357.1347045898438	-761.9072875976562	1238.12109375	-312.0367431640625	-701.018798828125	1304.521484375	-475.2067565917969	-593.103759765625	1350.366455078125	-527.2898559570312	-599.7503662109375	1227.193481445312	-593.1096801757812	-592.5100708007812	1018.662170410156	-628.0404052734375	-673.2222900390625	1009.208374023438	-569.1188354492188	-507.2686157226562	832.5885009765625	-585.817626953125	-578.6493530273438	797.0762329101562	-636.2203979492188	-574.2929077148438	935.2731323242188	-631.37451171875	-501.3442687988281	675.1766967773438	-585.4745483398438	-553.1280517578125	744.5248413085938	-632.0494384765625	-493.6376037597656	756.4178466796875	-607.2735595703125	-667.624267578125	1347.418212890625	-228.1161804199219	-705.73193359375	1283.854736328125	-181.5116729736328	-769.4619140625	1025.480102539062	-150.7436370849609	-800.3132934570312	1014.85595703125	-208.4899749755859	-703.689208984375	808.5882568359375	-133.1803741455078	-795.4545288085938	799.2289428710938	-131.9748077392578	-780.154052734375	971.9300537109375	-144.5106506347656	-735.4068603515625	651.2880249023438	-134.0841369628906	-721.3370971679688	716.678466796875	-108.4331207275391	-788.7262573242188	726.8134765625	-124.0990905761719	-679.4634399414062	1497.0341796875	-292.1306457519531	-503.1836242675781	1571.878540039062	-352.2311401367188	-562.6744384765625	1549.500366210938	-241.5582427978516	-616.7655029296875	1522.1435546875	-438.5810852050781	-600.6520385742188	862.4925537109375	-554.9739990234375	-674.715576171875	857.8889770507812	-185.3000946044922	-567.5286865234375	906.6270141601562	-232.4702758789062	-525.1257934570312	904.58056640625	-471.5673828125	-516.8395385742188	446.7195129394531	-511.6417541503906	-536.0332641601562	605.7576904296875	-528.5324096679688	-877.1447143554688	218.8071899414062	-596.7096557617188	-618.217041015625	352.8558349609375	-541.609619140625	-800.9541015625	45.61204528808594	-519.5755615234375	-838.2642822265625	113.4203262329102	-494.4232788085938	-831.0848999023438	119.801643371582	-597.6944580078125	-910.62939453125	256.5031433105469	-538.6627807617188	-596.9118041992188	473.905029296875	-255.4268188476562	-632.0333862304688	728.1942749023438	-187.9493103027344	-672.6215209960938	49.76165008544922	-322.7235717773438	-583.752197265625	327.5829467773438	-282.5514526367188	-467.3952331542969	41.53369522094727	-316.9638366699219	-521.4029541015625	45.26532363891602	-369.4434814453125	-566.5866088867188	45.6169319152832	-282.5762634277344	-712.6239013671875	39.84940338134766	-380.4962768554688	
181	1.8	-750.7535400390625	952.3007202148438	-329.9388122558594	-725.3217163085938	942.1929931640625	-450.5142517089844	-733.6812133789062	1024.980102539062	-398.3706970214844	-509.9385375976562	1176.889770507812	-351.0205688476562	-737.80419921875	1130.287841796875	-394.0227661132812	-682.0900268554688	1357.318359375	-380.0982971191406	-537.962890625	1274.31591796875	-354.0989074707031	-754.728271484375	1238.590942382812	-308.8556213378906	-694.0479736328125	1305.225341796875	-472.2807312011719	-586.177490234375	1351.168334960938	-524.297607421875	-592.5769653320312	1227.959106445312	-590.0648803710938	-584.3757934570312	1019.392639160156	-624.7615356445312	-665.2549438476562	1009.634155273438	-566.1070556640625	-497.2500305175781	834.7706298828125	-581.8472290039062	-567.8605346679688	798.1359252929688	-632.2723999023438	-565.4104614257812	936.4198608398438	-627.7748413085938	-488.8031921386719	677.5139770507812	-581.1931762695312	-541.6663208007812	745.947021484375	-627.9598999023438	-482.3658142089844	758.87451171875	-603.1262817382812	-660.760498046875	1348.2587890625	-225.1779937744141	-698.6199340820312	1284.659423828125	-178.3263244628906	-760.548095703125	1025.920043945312	-146.4415893554688	-791.9609985351562	1015.039978027344	-203.8675994873047	-692.960205078125	809.5968017578125	-129.0742797851562	-784.6524047851562	799.8610229492188	-126.3503875732422	-770.8217163085938	972.3587036132812	-139.9359588623047	-724.1759033203125	652.1638793945312	-128.2720184326172	-709.8798828125	717.8148803710938	-103.3455657958984	-777.684814453125	727.62109375	-117.7387390136719	-672.4853515625	1497.805541992188	-289.1390075683594	-496.0084228515625	1572.569946289062	-348.8148498535156	-555.7640991210938	1550.116943359375	-238.3344573974609	-609.4085693359375	1523.010864257812	-435.5325012207031	-591.452392578125	863.7437133789062	-552.0325317382812	-668.7821655273438	857.9967041015625	-183.0953521728516	-561.0995483398438	907.2427368164062	-229.0399169921875	-517.23681640625	906.2371215820312	-467.8405456542969	-497.6879272460938	450.1690063476562	-504.6669006347656	-521.6231079101562	608.2645263671875	-523.5623168945312	-854.429443359375	219.0171203613281	-593.270263671875	-597.5909423828125	355.8768005371094	-535.2640380859375	-775.055419921875	47.37709426879883	-515.9066162109375	-814.1533813476562	114.3327484130859	-490.80810546875	-805.9544067382812	121.4839859008789	-593.9391479492188	-889.5762939453125	255.7706451416016	-535.4508056640625	-594.73828125	473.3377990722656	-253.5592651367188	-626.7274169921875	728.08349609375	-185.7664337158203	-672.628662109375	49.73929977416992	-322.7106018066406	-582.8242797851562	327.1006164550781	-281.4245300292969	-467.3977355957031	41.47338485717773	-316.8956604003906	-521.4152221679688	45.29221343994141	-369.3591918945312	-566.5691528320312	45.48952102661133	-282.4940185546875	-712.5916137695312	39.9754638671875	-380.5455322265625	
